<svg width="20" height="20" viewBox="0 0 20 20" fill="none" xmlns="http://www.w3.org/2000/svg">
<g clip-path="url(#clip0_61514_1212)">
<path d="M19.7344 10.2266C19.7344 15.7539 15.9492 19.6875 10.3594 19.6875C5 19.6875 0.671875 15.3594 0.671875 10C0.671875 4.64062 5 0.3125 10.3594 0.3125C12.9688 0.3125 15.1641 1.26953 16.8555 2.84766L14.2188 5.38281C10.7695 2.05469 4.35547 4.55469 4.35547 10C4.35547 13.3789 7.05469 16.1172 10.3594 16.1172C14.1953 16.1172 15.6328 13.3672 15.8594 11.9414H10.3594V8.60938H19.582C19.6719 9.10547 19.7344 9.58203 19.7344 10.2266Z" fill="#161E2F"/>
</g>
<defs>
<clipPath id="clip0_61514_1212">
<path d="M0.671875 0H19.7344V20H0.671875V0Z" fill="white"/>
</clipPath>
</defs>
</svg>
